{
  "accessors": [
    {
      "bufferView": 2,
      "componentType": 5126,
      "count": 136,
      "max": [
        1.0,
        1.0,
        0.02962999977171421
      ],
      "min": [
        -1.0,
        -1.0,
        -0.02962999977171421
      ],
      "type": "VEC3"
    },
    {
      "bufferView": 2,
      "byteOffset": 1632,
      "componentType": 5126,
      "count": 136,
      "max": [
        0.7278825640678406,
        0.7278825640678406,
        0.6857172250747681
      ],
      "min": [
        -0.7278825640678406,
        -0.7278825640678406,
        -0.6857172250747681
      ],
      "type": "VEC3"
    },
    {
      "bufferView": 1,
      "componentType": 5126,
      "count": 136,
      "max": [
        0.43852999806404114,
        0.940779983997345
      ],
      "min": [
        0.059059999883174896,
        0.07315000146627426
      ],
      "type": "VEC2"
    },
    {
      "bufferView": 0,
      "componentType": 5125,
      "count": 372,
      "type": "SCALAR"
    },
    {
      "bufferView": 2,
      "byteOffset": 3264,
      "componentType": 5126,
      "count": 136,
      "max": [
        1.0,
        1.0,
        0.02962999977171421
      ],
      "min": [
        -1.0,
        -1.0,
        -0.02962999977171421
      ],
      "type": "VEC3"
    },
    {
      "bufferView": 2,
      "byteOffset": 4896,
      "componentType": 5126,
      "count": 136,
      "max": [
        0.7278825640678406,
        0.7278825640678406,
        0.6857172250747681
      ],
      "min": [
        -0.7278825640678406,
        -0.7278825640678406,
        -0.6857172250747681
      ],
      "type": "VEC3"
    },
    {
      "bufferView": 1,
      "byteOffset": 1088,
      "componentType": 5126,
      "count": 136,
      "max": [
        0.9478099942207336,
        0.9183899760246277
      ],
      "min": [
        0.5708299875259399,
        0.05931000038981438
      ],
      "type": "VEC2"
    },
    {
      "bufferView": 0,
      "byteOffset": 1488,
      "componentType": 5125,
      "count": 372,
      "type": "SCALAR"
    },
    {
      "bufferView": 2,
      "byteOffset": 6528,
      "componentType": 5126,
      "count": 1989,
      "max": [
        0.015879999846220016,
        0.012280000373721123,
        0.0016199999954551458
      ],
      "min": [
        -0.016380000859498978,
        -0.02019999921321869,
        0.0
      ],
      "type": "VEC3"
    },
    {
      "bufferView": 2,
      "byteOffset": 30396,
      "componentType": 5126,
      "count": 1989,
      "max": [
        0.9999984502792358,
        0.9993828535079956,
        1.0
      ],
      "min": [
        -0.9999793767929077,
        -0.9993216395378113,
        -1.0
      ],
      "type": "VEC3"
    },
    {
      "bufferView": 0,
      "byteOffset": 2976,
      "componentType": 5125,
      "count": 3972,
      "type": "SCALAR"
    },
    {
      "bufferView": 2,
      "byteOffset": 54264,
      "componentType": 5126,
      "count": 418,
      "max": [
        0.007770000025629997,
        0.01769999973475933,
        0.0016199999954551458
      ],
      "min": [
        -0.015949999913573265,
        0.009359999559819698,
        0.0
      ],
      "type": "VEC3"
    },
    {
      "bufferView": 2,
      "byteOffset": 59280,
      "componentType": 5126,
      "count": 418,
      "max": [
        0.997743546962738,
        0.9977455735206604,
        1.0
      ],
      "min": [
        -0.997743546962738,
        -0.9935749769210815,
        -1.0
      ],
      "type": "VEC3"
    },
    {
      "bufferView": 0,
      "byteOffset": 18864,
      "componentType": 5125,
      "count": 816,
      "type": "SCALAR"
    },
    {
      "bufferView": 2,
      "byteOffset": 64296,
      "componentType": 5126,
      "count": 42,
      "max": [
        0.0370899997651577,
        0.020759999752044678,
        0.009490000084042549
      ],
      "min": [
        -0.0362900011241436,
        -0.06254000216722488,
        0.0
      ],
      "type": "VEC3"
    },
    {
      "bufferView": 2,
      "byteOffset": 64800,
      "componentType": 5126,
      "count": 42,
      "max": [
        1.0,
        1.0,
        1.0
      ],
      "min": [
        -1.0,
        -0.5897771120071411,
        -1.0
      ],
      "type": "VEC3"
    },
    {
      "bufferView": 0,
      "byteOffset": 22128,
      "componentType": 5125,
      "count": 72,
      "type": "SCALAR"
    }
  ],
  "asset": {
    "extras": {
      "author": "Chaitanya Krishnan (https://sketchfab.com/chaitanyak)",
      "license": "CC-BY-4.0 (http://creativecommons.org/licenses/by/4.0/)",
      "source": "https://sketchfab.com/3d-models/portal-xyD1Eb3ryyuJAsLxuDM5101BWxM",
      "title": "Portal"
    },
    "generator": "Sketchfab-12.68.0",
    "version": "2.0"
  },
  "bufferViews": [
    {
      "buffer": 0,
      "byteLength": 22416,
      "name": "floatBufferViews",
      "target": 34963
    },
    {
      "buffer": 0,
      "byteLength": 2176,
      "byteOffset": 22416,
      "byteStride": 8,
      "name": "floatBufferViews",
      "target": 34962
    },
    {
      "buffer": 0,
      "byteLength": 65304,
      "byteOffset": 24592,
      "byteStride": 12,
      "name": "floatBufferViews",
      "target": 34962
    }
  ],
  "buffers": [
    {
      "byteLength": 89896,
      "uri": "scene.bin"
    }
  ],
  "images": [
    {
      "uri": "textures/portal_yellow_baseColor.jpeg"
    }
  ],
  "materials": [
    {
      "doubleSided": true,
      "name": "arrow",
      "pbrMetallicRoughness": {
        "baseColorFactor": [
          0.6400000190400001,
          0.6400000190400001,
          0.6400000190400001,
          1.0
        ],
        "metallicFactor": 0.0,
        "roughnessFactor": 0.6
      }
    },
    {
      "doubleSided": true,
      "emissiveFactor": [
        0.33,
        0.33,
        0.33
      ],
      "name": "material",
      "pbrMetallicRoughness": {
        "baseColorFactor": [
          0.8000000119,
          0.7678215618213455,
          0.7678215618213455,
          1.0
        ],
        "metallicFactor": 0.0,
        "roughnessFactor": 0.6
      }
    },
    {
      "doubleSided": true,
      "emissiveFactor": [
        1.0,
        1.0,
        1.0
      ],
      "emissiveTexture": {
        "index": 0
      },
      "name": "portal_yellow",
      "pbrMetallicRoughness": {
        "baseColorTexture": {
          "index": 0
        },
        "metallicFactor": 0.0,
        "roughnessFactor": 0.6
      }
    },
    {
      "doubleSided": true,
      "emissiveFactor": [
        1.0,
        1.0,
        1.0
      ],
      "emissiveTexture": {
        "index": 0
      },
      "name": "portal_blue",
      "pbrMetallicRoughness": {
        "baseColorTexture": {
          "index": 0
        },
        "metallicFactor": 0.0,
        "roughnessFactor": 0.6
      }
    }
  ],
  "meshes": [
    {
      "name": "Cylinder_0",
      "primitives": [
        {
          "attributes": {
            "NORMAL": 1,
            "POSITION": 0,
            "TEXCOORD_0": 2
          },
          "indices": 3,
          "material": 3,
          "mode": 4
        }
      ]
    },
    {
      "name": "Cylinder.001_0",
      "primitives": [
        {
          "attributes": {
            "NORMAL": 5,
            "POSITION": 4,
            "TEXCOORD_0": 6
          },
          "indices": 7,
          "material": 2,
          "mode": 4
        }
      ]
    },
    {
      "name": "Curve_0",
      "primitives": [
        {
          "attributes": {
            "NORMAL": 9,
            "POSITION": 8
          },
          "indices": 10,
          "material": 1,
          "mode": 4
        }
      ]
    },
    {
      "name": "guy2_0",
      "primitives": [
        {
          "attributes": {
            "NORMAL": 12,
            "POSITION": 11
          },
          "indices": 13,
          "material": 1,
          "mode": 4
        }
      ]
    },
    {
      "name": "Curve.001_0",
      "primitives": [
        {
          "attributes": {
            "NORMAL": 15,
            "POSITION": 14
          },
          "indices": 16,
          "material": 0,
          "mode": 4
        }
      ]
    }
  ],
  "nodes": [
    {
      "children": [
        1
      ],
      "matrix": [
        1.0,
        0.0,
        0.0,
        0.0,
        0.0,
        2.220446049250313e-16,
        -1.0,
        0.0,
        0.0,
        1.0,
        2.220446049250313e-16,
        0.0,
        0.0,
        0.0,
        0.0,
        1.0
      ],
      "name": "Sketchfab_model"
    },
    {
      "children": [
        2,
        4,
        6,
        8,
        10,
        12,
        14,
        16,
        18
      ],
      "name": "Root"
    },
    {
      "children": [
        3
      ],
      "matrix": [
        1.0,
        0.0,
        0.0,
        0.0,
        0.0,
        1.0,
        0.0,
        0.0,
        0.0,
        0.0,
        1.0,
        0.0,
        0.14631000000000002,
        0.07709000000000002,
        5.036690000000001,
        1.0
      ],
      "name": "guy"
    },
    {
      "name": "guy"
    },
    {
      "children": [
        5
      ],
      "matrix": [
        0.6098800000000001,
        0.0,
        0.0,
        0.0,
        0.0,
        1.0,
        0.0,
        0.0,
        0.0,
        0.0,
        1.0,
        0.0,
        0.0,
        0.0,
        -0.7233200000000001,
        1.0
      ],
      "name": "Cylinder"
    },
    {
      "mesh": 0,
      "name": "Cylinder_0"
    },
    {
      "children": [
        7
      ],
      "matrix": [
        0.6098800000000001,
        0.0,
        0.0,
        0.0,
        0.0,
        1.0,
        0.0,
        0.0,
        0.0,
        0.0,
        1.0,
        0.0,
        0.0,
        0.0,
        0.95613,
        1.0
      ],
      "name": "Cylinder.001"
    },
    {
      "mesh": 1,
      "name": "Cylinder.001_0"
    },
    {
      "children": [
        9
      ],
      "matrix": [
        1.0,
        0.0,
        0.0,
        0.0,
        0.0,
        1.0,
        0.0,
        0.0,
        0.0,
        0.0,
        1.0,
        0.0,
        0.14631000000000002,
        0.07709000000000002,
        -5.998640000000001,
        1.0
      ],
      "name": "Point.001"
    },
    {
      "name": "Point.001"
    },
    {
      "children": [
        11
      ],
      "matrix": [
        -0.008140000000000001,
        0.31194000000000005,
        0.9500700000000001,
        0.0,
        -0.13239,
        0.9414,
        -0.31023,
        0.0,
        -0.9911599999999999,
        -0.1283,
        0.033630000000000014,
        0.0,
        5.61522,
        0.78503,
        -0.05906000000000001,
        1.0
      ],
      "name": "Point.002"
    },
    {
      "name": "Point.002"
    },
    {
      "children": [
        13
      ],
      "matrix": [
        -0.008140000000000001,
        0.31194000000000005,
        0.9500700000000001,
        0.0,
        -0.13239,
        0.9414,
        -0.31023,
        0.0,
        -0.9911599999999999,
        -0.1283,
        0.033630000000000014,
        0.0,
        -5.322609999999999,
        -0.6308500000000001,
        0.3120800000000001,
        1.0
      ],
      "name": "Point.003"
    },
    {
      "name": "Point.003"
    },
    {
      "children": [
        15
      ],
      "matrix": [
        -0.6731200000000002,
        27.17209,
        -2.9763499999999996,
        0.0,
        0.77859,
        2.99511,
        27.16721,
        0.0,
        27.32352,
        0.5840400000000001,
        -0.84746,
        0.0,
        0.03335000000000001,
        0.10531,
        0.6538000000000002,
        1.0
      ],
      "name": "Curve"
    },
    {
      "mesh": 2,
      "name": "Curve_0"
    },
    {
      "children": [
        17
      ],
      "matrix": [
        -0.6731200000000002,
        27.17209,
        -2.9763499999999996,
        0.0,
        0.77859,
        2.99511,
        27.16721,
        0.0,
        27.32352,
        0.5840400000000001,
        -0.84746,
        0.0,
        -0.011520000000000002,
        0.10531,
        -1.0219199999999997,
        1.0
      ],
      "name": "guy2"
    },
    {
      "mesh": 3,
      "name": "guy2_0"
    },
    {
      "children": [
        19
      ],
      "matrix": [
        0.0,
        -3.9565799999999998,
        0.0,
        0.0,
        0.0,
        0.0,
        3.9565799999999998,
        0.0,
        -3.9565799999999998,
        -0.0,
        0.0,
        0.0,
        0.05045000000000001,
        -0.0,
        -0.13878000000000001,
        1.0
      ],
      "name": "Curve.001"
    },
    {
      "mesh": 4,
      "name": "Curve.001_0"
    }
  ],
  "samplers": [
    {
      "magFilter": 9729,
      "minFilter": 9987,
      "wrapS": 10497,
      "wrapT": 10497
    }
  ],
  "scene": 0,
  "scenes": [
    {
      "name": "Sketchfab_Scene",
      "nodes": [
        0
      ]
    }
  ],
  "textures": [
    {
      "sampler": 0,
      "source": 0
    }
  ]
}
