{
  "accessors": [
    {
      "bufferView": 2,
      "componentType": 5126,
      "count": 4421,
      "max": [
        0.20547093451023102,
        0.13453295826911926,
        0.440154492855072
      ],
      "min": [
        -0.20547091960906982,
        -0.13453295826911926,
        0.0
      ],
      "type": "VEC3"
    },
    {
      "bufferView": 2,
      "byteOffset": 53052,
      "componentType": 5126,
      "count": 4421,
      "max": [
        1.0,
        1.0,
        0.9999994039535522
      ],
      "min": [
        -1.0,
        -1.0,
        -0.9999994039535522
      ],
      "type": "VEC3"
    },
    {
      "bufferView": 1,
      "componentType": 5126,
      "count": 4421,
      "max": [
        0.9478296041488647,
        0.8703941702842712
      ],
      "min": [
        0.00023439926735591143,
        0.00023438356583938003
      ],
      "type": "VEC2"
    },
    {
      "bufferView": 0,
      "componentType": 5125,
      "count": 23802,
      "type": "SCALAR"
    },
    {
      "bufferView": 2,
      "byteOffset": 106104,
      "componentType": 5126,
      "count": 102,
      "max": [
        0.11908558011054993,
        0.11908558011054993,
        0.10072320699691772
      ],
      "min": [
        -0.11908558011054993,
        -0.11908558011054993,
        -0.0066571831703186035
      ],
      "type": "VEC3"
    },
    {
      "bufferView": 2,
      "byteOffset": 107328,
      "componentType": 5126,
      "count": 102,
      "max": [
        0.9232539534568787,
        0.9993230104446411,
        0.7182726860046387
      ],
      "min": [
        -0.7637173533439636,
        -0.9993230104446411,
        -0.9973957538604736
      ],
      "type": "VEC3"
    },
    {
      "bufferView": 1,
      "byteOffset": 35368,
      "componentType": 5126,
      "count": 102,
      "max": [
        0.9997655749320984,
        0.8032422661781311
      ],
      "min": [
        0.6675133109092712,
        0.22666801512241364
      ],
      "type": "VEC2"
    },
    {
      "bufferView": 0,
      "byteOffset": 95208,
      "componentType": 5125,
      "count": 384,
      "type": "SCALAR"
    }
  ],
  "asset": {
    "extras": {
      "author": "Urielgc (https://sketchfab.com/Urielgc)",
      "license": "CC-BY-4.0 (http://creativecommons.org/licenses/by/4.0/)",
      "source": "https://sketchfab.com/3d-models/trophy-cafed175700143669f1786dd04d84b6b",
      "title": "Trophy"
    },
    "generator": "Sketchfab-16.0.0",
    "version": "2.0"
  },
  "bufferViews": [
    {
      "buffer": 0,
      "byteLength": 96744,
      "name": "floatBufferViews",
      "target": 34963
    },
    {
      "buffer": 0,
      "byteLength": 36184,
      "byteOffset": 96744,
      "byteStride": 8,
      "name": "floatBufferViews",
      "target": 34962
    },
    {
      "buffer": 0,
      "byteLength": 108552,
      "byteOffset": 132928,
      "byteStride": 12,
      "name": "floatBufferViews",
      "target": 34962
    }
  ],
  "buffers": [
    {
      "byteLength": 241480,
      "uri": "scene.bin"
    }
  ],
  "extensionsUsed": [
    "KHR_materials_specular"
  ],
  "images": [
    {
      "uri": "textures/Material.001_baseColor.png"
    }
  ],
  "materials": [
    {
      "doubleSided": true,
      "extensions": {
        "KHR_materials_specular": {
          "specularColorFactor": [
            1.0,
            1.0,
            1.0
          ],
          "specularFactor": 0.3890778152518644
        }
      },
      "name": "Material.001",
      "pbrMetallicRoughness": {
        "baseColorTexture": {
          "index": 0
        },
        "roughnessFactor": 0.0
      }
    },
    {
      "doubleSided": true,
      "name": "Material.002",
      "pbrMetallicRoughness": {
        "baseColorFactor": [
          0.0694196,
          0.0822816,
          0.111933,
          1.0
        ],
        "metallicFactor": 0.7297870989714363,
        "roughnessFactor": 0.44665163724048484
      }
    }
  ],
  "meshes": [
    {
      "name": "NurbsPath_Material.001_0",
      "primitives": [
        {
          "attributes": {
            "NORMAL": 1,
            "POSITION": 0,
            "TEXCOORD_0": 2
          },
          "indices": 3,
          "material": 0,
          "mode": 4
        }
      ]
    },
    {
      "name": "NurbsPath_Material.002_0",
      "primitives": [
        {
          "attributes": {
            "NORMAL": 5,
            "POSITION": 4,
            "TEXCOORD_0": 6
          },
          "indices": 7,
          "material": 1,
          "mode": 4
        }
      ]
    }
  ],
  "nodes": [
    {
      "children": [
        1
      ],
      "matrix": [
        1.0,
        0.0,
        0.0,
        0.0,
        0.0,
        2.220446049250313e-16,
        -1.0,
        0.0,
        0.0,
        1.0,
        2.220446049250313e-16,
        0.0,
        0.0,
        0.0,
        0.0,
        1.0
      ],
      "name": "Sketchfab_model"
    },
    {
      "children": [
        2
      ],
      "matrix": [
        0.009999999776482582,
        0.0,
        0.0,
        0.0,
        0.0,
        0.0,
        0.009999999776482582,
        0.0,
        0.0,
        -0.009999999776482582,
        0.0,
        0.0,
        0.0,
        0.0,
        0.0,
        1.0
      ],
      "name": "d98468ae00554544b7bea186e063e503.fbx"
    },
    {
      "children": [
        3
      ],
      "name": "RootNode"
    },
    {
      "children": [
        4,
        5
      ],
      "matrix": [
        419.7184143066406,
        0.0,
        0.0,
        0.0,
        0.0,
        -6.838080921210007e-05,
        -419.71841430663505,
        0.0,
        0.0,
        419.71841430663505,
        -6.838080921210007e-05,
        0.0,
        0.0,
        3.432114839553833,
        0.0,
        1.0
      ],
      "name": "NurbsPath"
    },
    {
      "mesh": 0,
      "name": "NurbsPath_Material.001_0"
    },
    {
      "mesh": 1,
      "name": "NurbsPath_Material.002_0"
    }
  ],
  "samplers": [
    {
      "magFilter": 9729,
      "minFilter": 9987,
      "wrapS": 10497,
      "wrapT": 10497
    }
  ],
  "scene": 0,
  "scenes": [
    {
      "name": "Sketchfab_Scene",
      "nodes": [
        0
      ]
    }
  ],
  "textures": [
    {
      "sampler": 0,
      "source": 0
    }
  ]
}
